<svg xmlns="http://www.w3.org/2000/svg" viewBox="0 0 48 48"><defs><style>.cls-2{fill:#f16d8f}.cls-3{fill:#f280a0}.cls-4{fill:#f89bae}.cls-6{fill:#bcc0ff}.cls-7{fill:#98d7de}.cls-8{fill:#fac8fc}.cls-10{fill:#81c8d9}.cls-11{fill:#a499d6}.cls-13{fill:#f6fafd}</style></defs><g id="_16-cart" data-name="16-cart"><path style="fill:#ffdddf" d="m1 21 2 16h32.864L39.5 21H1z"/><path class="cls-2" d="M31 1a2 2 0 0 1 2 2v2h-4V3a2 2 0 0 1 2-2z"/><path class="cls-3" d="M17.192 19.353c-.565.571-9.612 4-14.7-1.142a4.685 4.685 0 0 1 0-6.852c1.7-1.713 3.958-1.713 6.219-.571C7.58 8.5 7.58 6.22 9.277 4.506a4.579 4.579 0 0 1 6.785 0c5.088 5.14 2.261 13.705 1.13 14.847z"/><path class="cls-4" d="M33 3s0-2 3-2h2a3.942 3.942 0 0 1-3.636 3.956C33.954 4.984 33.5 5 33 5zM29 3s0-2-3-2h-2a3.942 3.942 0 0 0 3.636 3.956C28.046 4.984 28.5 5 29 5z"/><path style="fill:#ffbafe" d="M18 11h2v10h-4V11h2z"/><path class="cls-6" d="M16 11v10h-5V11h5zM25 11v10h-5V11h5z"/><path class="cls-7" d="M29 5v16h-4V5h4zM33 5h4v16h-4z"/><path class="cls-3" d="M29 5h4v16h-4z"/><circle class="cls-7" cx="7" cy="45" r="2"/><circle class="cls-7" cx="33" cy="45" r="2"/><path class="cls-8" d="M18 9c0-1.66-1.79-2-4-2l1 2-1 2h4"/><path class="cls-8" d="M18.32 7.98C18.93 7.19 20.35 7 22 7l-1 2 1 2h-4V9a1.547 1.547 0 0 1 .32-1.01"/><path style="fill:#fcf1ed" d="M35.864 37 39.5 21H6l16 16h13.864z"/><path class="cls-10" d="M25 17h4v4h-4zM33 17h4v4h-4z"/><path class="cls-2" d="M29 17h4v4h-4z"/><path class="cls-11" d="M11 17h5v4h-5z"/><path style="fill:#faaafe" d="M16 17h4v4h-4z"/><path class="cls-3" d="M22.5 24c1.75 0 3.5 1 3.5 3 0 4.5-5.83 7-7 7-.58 0-7-2.5-7-7 0-2 1.75-3 3.5-3a3.6 3.6 0 0 1 3.5 2.5 3.6 3.6 0 0 1 3.5-2.5z"/><path class="cls-2" d="M15 27a2.824 2.824 0 0 1 1.963-2.713A3.763 3.763 0 0 0 15.5 24c-1.75 0-3.5 1-3.5 3 0 4.5 6.42 7 7 7a5.072 5.072 0 0 0 1.625-.478C18.569 32.6 15 30.356 15 27z"/><path class="cls-4" d="M22.5 24a3.491 3.491 0 0 0-2.577 1.03A3.058 3.058 0 0 1 23 28c0 2.8-2.252 4.82-4.238 5.952A1.167 1.167 0 0 0 19 34c1.17 0 7-2.5 7-7 0-2-1.75-3-3.5-3z"/><ellipse class="cls-13" cx="24" cy="27" rx=".825" ry="1.148" transform="rotate(-45.02 24 27)"/><ellipse class="cls-13" cx="23.746" cy="28.5" rx=".413" ry=".574" transform="rotate(-45.02 23.745 28.5)"/><path class="cls-2" d="M11 20.957V11H9v9.959a15.161 15.161 0 0 0 2-.002zM14.085 7.169A10.771 10.771 0 0 0 12 7l1 2-1 2h2l1-2z"/><path class="cls-13" d="M34 8h2v2h-2zM34 11h2v2h-2zM9 34h2v2H9zM6 34h2v2H6z"/><path class="cls-11" d="M23 11v6h-3v4h5V11h-2z"/><circle class="cls-10" cx="33" cy="45" r="1"/><circle class="cls-10" cx="7" cy="45" r="1"/><path d="M35 42H3v-2h31.2l7.823-35.217A1 1 0 0 1 43 4h4v2h-3.2l-7.823 35.217A1 1 0 0 1 35 42z" style="fill:#7d649c"/></g></svg>